PathFileType	4	(X/Y/Z)	/Users/itak/Documents/Research/Walk-IL/dataset/trc/00451_00167.trc
DataRate	CameraRate	NumFrames	NumMarkers	Units	OrigDataRate	OrigDataStartFrame	OrigNumFrames
100.000000	100.000000	4	53	mm	100.000000	0	455
Frame#	Time	RPSI			LPSI			L3			STRN			T10			C7			CLAV			RBAK			LBAK			LSHO			LUPA			LAEL			LAOL			LWTS			LWPS			LFRA			LIFD			LHPS			LHTS			RSHO			RUPA			RAEL			RAOL			RWTS			RWPS			RFRA			RIFD			RHTS			RHPS			RBHD			LFHD			RFHD			LBHD			LHIP			RHIP			RASI			LASI			LKNE			LTHI			LANK			LTIP			LTOE			LMT1			LMT5			LHEE			RKNE			RTHI			RANK			RTIP			RTOE			RMT1			RMT5			RHEE			
		X1	Y1	Z1	X2	Y2	Z2	X3	Y3	Z3	X4	Y4	Z4	X5	Y5	Z5	X6	Y6	Z6	X7	Y7	Z7	X8	Y8	Z8	X9	Y9	Z9	X10	Y10	Z10	X11	Y11	Z11	X12	Y12	Z12	X13	Y13	Z13	X14	Y14	Z14	X15	Y15	Z15	X16	Y16	Z16	X17	Y17	Z17	X18	Y18	Z18	X19	Y19	Z19	X20	Y20	Z20	X21	Y21	Z21	X22	Y22	Z22	X23	Y23	Z23	X24	Y24	Z24	X25	Y25	Z25	X26	Y26	Z26	X27	Y27	Z27	X28	Y28	Z28	X29	Y29	Z29	X30	Y30	Z30	X31	Y31	Z31	X32	Y32	Z32	X33	Y33	Z33	X34	Y34	Z34	X35	Y35	Z35	X36	Y36	Z36	X37	Y37	Z37	X38	Y38	Z38	X39	Y39	Z39	X40	Y40	Z40	X41	Y41	Z41	X42	Y42	Z42	X43	Y43	Z43	X44	Y44	Z44	X45	Y45	Z45	X46	Y46	Z46	X47	Y47	Z47	X48	Y48	Z48	X49	Y49	Z49	X50	Y50	Z50	X51	Y51	Z51	X52	Y52	Z52	X53	Y53	Z53	

1	0	-1855.49462890625	973.2727661132812	-599.6622924804688	-1781.086059570312	970.0651245117188	-720.8942260742188	-1809.569702148438	1070.295654296875	-636.9762573242188	-1544.872802734375	1251.938598632812	-531.23193359375	-1815.958251953125	1194.41259765625	-642.320556640625	-1741.793579101562	1459.331787109375	-604.26513671875	-1569.902099609375	1367.17724609375	-552.3822021484375	-1843.734741210938	1347.3203125	-540.5208740234375	-1740.675659179688	1409.3056640625	-706.109375	-1616.316650390625	1425.531616210938	-748.4509887695312	-1602.698120117188	1307.559204101562	-845.2671508789062	-1586.208618164062	1093.299682617188	-878.32763671875	-1683.005615234375	1087.240844726562	-844.4803466796875	-1537.916137695312	892.753662109375	-819.3195190429688	-1566.334838867188	874.3035888671875	-886.7177124023438	-1569.376708984375	1005.465942382812	-884.5366821289062	-1525.178466796875	729.0795288085938	-807.3485107421875	-1557.0712890625	793.4248046875	-880.2059326171875	-1513.146118164062	808.8693237304688	-820.7691650390625	-1738.94140625	1431.5400390625	-430.2004699707031	-1787.192138671875	1373.829345703125	-366.5298767089844	-1820.35205078125	1097.05517578125	-294.0801696777344	-1854.849731445312	1077.099487304688	-349.3226928710938	-1716.734985351562	896.2466430664062	-275.5712585449219	-1800.417602539062	881.21240234375	-252.4949188232422	-1822.659912109375	1039.921020507812	-278.8004150390625	-1713.1416015625	739.5218505859375	-250.9932403564453	-1705.323364257812	799.8161010742188	-247.4906768798828	-1781.553100585938	795.4833984375	-238.4125061035156	-1691.82470703125	1653.132202148438	-501.1524353027344	-1497.802978515625	1657.94677734375	-578.7022094726562	-1559.685424804688	1660.674438476562	-462.0612487792969	-1624.702880859375	1655.14990234375	-665.82958984375	-1606.347290039062	862.1686401367188	-751.9808349609375	-1828.262329101562	869.1013793945312	-420.844970703125	-1704.973999023438	908.6018676757812	-420.7565002441406	-1564.240234375	900.51806640625	-634.5391845703125	-1579.5341796875	442.7797241210938	-692.273681640625	-1559.333862304688	598.2024536132812	-706.1008911132812	-1688.135131835938	33.57361602783203	-750.515625	-1597.805419921875	289.3703308105469	-715.4443359375	-1527.093139648438	47.48731231689453	-577.9202880859375	-1603.392944335938	53.45183181762695	-587.7169799804688	-1548.466796875	44.34303283691406	-689.8209228515625	-1761.551879882812	33.84919357299805	-731.9789428710938	-1774.598388671875	475.5460510253906	-415.2959594726562	-1794.305419921875	735.5471801757812	-384.9179992675781	-1817.013671875	43.97417831420898	-425.9004821777344	-1780.24560546875	331.1753845214844	-399.4650268554688	-1603.575439453125	55.30303955078125	-375.3984375	-1644.143676757812	57.74251174926758	-434.0497436523438	-1707.692016601562	52.19414520263672	-348.0170593261719	-1855.323974609375	33.63010406494141	-497.6422119140625	
2	0.01	-1855.35986328125	973.26708984375	-600.1825561523438	-1780.8369140625	970.2061157226562	-721.3001708984375	-1809.33251953125	1070.265380859375	-637.3804321289062	-1544.884399414062	1251.995971679688	-531.23828125	-1815.5908203125	1194.403564453125	-642.78271484375	-1741.675903320312	1459.375	-604.7144165039062	-1569.814208984375	1367.240112304688	-552.468994140625	-1843.6748046875	1347.420166015625	-541.1243286132812	-1740.370239257812	1409.378173828125	-706.548828125	-1615.912475585938	1425.553344726562	-748.6242065429688	-1602.071166992188	1307.680419921875	-845.458740234375	-1585.564819335938	1093.525146484375	-878.8515014648438	-1682.166259765625	1087.204467773438	-845.1795654296875	-1537.170166015625	892.9683837890625	-819.83203125	-1565.5205078125	874.527587890625	-887.3904418945312	-1568.568603515625	1005.651794433594	-885.0885009765625	-1524.364013671875	729.197265625	-808.133544921875	-1556.306518554688	793.6329345703125	-880.993408203125	-1513.165283203125	808.8685302734375	-821.582763671875	-1739.12548828125	1431.697021484375	-430.63916015625	-1787.46337890625	1373.963623046875	-366.9897155761719	-1820.825561523438	1097.078247070312	-294.7549133300781	-1855.188598632812	1077.196411132812	-350.0587158203125	-1717.145263671875	896.281494140625	-276.3933715820312	-1800.834594726562	881.17236328125	-253.3503875732422	-1823.126831054688	1040.0107421875	-279.5733032226562	-1713.262451171875	739.4696044921875	-252.3470001220703	-1705.635864257812	799.8045043945312	-248.6313018798828	-1781.90673828125	795.4371948242188	-239.5936737060547	-1691.711059570312	1653.27099609375	-501.6385803222656	-1497.590698242188	1658.04052734375	-578.9639892578125	-1559.597534179688	1660.805541992188	-462.4844055175781	-1624.427490234375	1655.144287109375	-666.23486328125	-1605.965209960938	862.277587890625	-751.9309692382812	-1828.431884765625	869.1672973632812	-421.1719665527344	-1705.269165039062	908.6253051757812	-420.8399047851562	-1564.120971679688	900.57861328125	-634.4618530273438	-1579.843627929688	442.8544311523438	-692.333251953125	-1559.544311523438	598.31982421875	-706.0447387695312	-1688.12646484375	33.5677604675293	-750.5330200195312	-1598.12646484375	289.3901977539062	-715.4828491210938	-1527.107666015625	47.50265884399414	-577.9307250976562	-1603.404418945312	53.43208694458008	-587.7108764648438	-1548.487426757812	44.34936141967773	-689.8347778320312	-1761.562377929688	33.83429336547852	-732.0240478515625	-1774.65966796875	475.67529296875	-415.3490295410156	-1794.427001953125	735.6148071289062	-385.0540466308594	-1817.044311523438	43.98252487182617	-425.9830322265625	-1780.4521484375	331.29541015625	-399.5966796875	-1603.770263671875	55.36532974243164	-375.2757873535156	-1644.226684570312	57.81863784790039	-433.971435546875	-1707.903930664062	52.16408920288086	-348.0450134277344	-1855.3544921875	33.74611282348633	-497.7885131835938	
3	0.02	-1855.235107421875	973.2821044921875	-600.746337890625	-1780.555297851562	970.423583984375	-721.7482299804688	-1809.070434570312	1070.230224609375	-637.8223876953125	-1544.9365234375	1252.074462890625	-531.1975708007812	-1815.19091796875	1194.3974609375	-643.3093872070312	-1741.58251953125	1459.430419921875	-605.2416381835938	-1569.754516601562	1367.318237304688	-552.5355224609375	-1843.658203125	1347.526123046875	-541.8399658203125	-1740.038452148438	1409.452758789062	-707.049560546875	-1615.457885742188	1425.570068359375	-748.8024291992188	-1601.34228515625	1307.824584960938	-845.6697387695312	-1584.756958007812	1093.795532226562	-879.4707641601562	-1681.221435546875	1087.218383789062	-846.0512084960938	-1536.243530273438	893.2182006835938	-820.4973754882812	-1564.474365234375	874.8125	-888.2352905273438	-1567.557861328125	1005.884460449219	-885.7533569335938	-1523.312255859375	729.3487548828125	-809.1217041015625	-1555.266967773438	793.8546142578125	-881.9705200195312	-1513.01708984375	808.9173583984375	-822.5977172851562	-1739.408325195312	1431.875854492188	-431.1438293457031	-1787.872192382812	1374.122192382812	-367.5392150878906	-1821.406982421875	1097.102294921875	-295.5531005859375	-1855.651123046875	1077.304931640625	-350.9373779296875	-1717.6552734375	896.3008422851562	-277.4445190429688	-1801.332763671875	881.1118774414062	-254.3796234130859	-1823.7099609375	1040.09228515625	-280.4851379394531	-1713.517700195312	739.3527221679688	-254.066650390625	-1706.052490234375	799.7399291992188	-250.0992126464844	-1782.358642578125	795.3643798828125	-241.0227813720703	-1691.617797851562	1653.442749023438	-502.2126770019531	-1497.364868164062	1658.127319335938	-579.2991333007812	-1559.499633789062	1660.958618164062	-462.9719543457031	-1624.128295898438	1655.129150390625	-666.7108154296875	-1605.569458007812	862.43896484375	-751.8858642578125	-1828.62451171875	869.2432250976562	-421.5465087890625	-1705.5732421875	908.655517578125	-420.9364318847656	-1564.002807617188	900.67529296875	-634.3827514648438	-1580.269165039062	442.9365539550781	-692.4535522460938	-1559.797119140625	598.4939575195312	-705.9983520507812	-1688.119018554688	33.56306076049805	-750.5476684570312	-1598.54833984375	289.3991394042969	-715.5731811523438	-1527.11865234375	47.52141189575195	-577.9435424804688	-1603.412719726562	53.41278457641602	-587.7047729492188	-1548.5029296875	44.35245132446289	-689.8486328125	-1761.571411132812	33.81885528564453	-732.0665283203125	-1774.66259765625	475.8063049316406	-415.4045715332031	-1794.548950195312	735.6873779296875	-385.2021789550781	-1817.067504882812	44.0247688293457	-426.1167907714844	-1780.641845703125	331.4317626953125	-399.7462768554688	-1603.98779296875	55.36246871948242	-375.1143798828125	-1644.306884765625	57.85995864868164	-433.8676147460938	-1708.147827148438	52.11256790161133	-348.0762329101562	-1855.364501953125	33.91599273681641	-498.0015869140625	
4	0.03	-1855.136352539062	973.3187255859375	-601.2841186523438	-1780.275268554688	970.7177124023438	-722.1818237304688	-1808.817749023438	1070.192749023438	-638.2477416992188	-1545.043579101562	1252.1748046875	-531.088134765625	-1814.809936523438	1194.39501953125	-643.8530883789062	-1741.542114257812	1459.495849609375	-605.8008422851562	-1569.748291015625	1367.40771484375	-552.5562133789062	-1843.714233398438	1347.628662109375	-542.6156616210938	-1739.721435546875	1409.518920898438	-707.5642700195312	-1614.998046875	1425.57470703125	-748.9561767578125	-1600.574584960938	1307.980224609375	-845.8713989257812	-1583.818969726562	1094.09423828125	-880.13818359375	-1680.229614257812	1087.284057617188	-847.0355834960938	-1535.173950195312	893.4841918945312	-821.2977905273438	-1563.235473632812	875.1456298828125	-889.2181396484375	-1566.389770507812	1006.155578613281	-886.4910888671875	-1522.04443359375	729.5302734375	-810.2858276367188	-1553.956176757812	794.068603515625	-883.090087890625	-1512.651000976562	809.0135498046875	-823.7715454101562	-1739.800170898438	1432.060791015625	-431.6659851074219	-1788.42919921875	1374.292724609375	-368.1352233886719	-1822.077270507812	1097.122192382812	-296.4254760742188	-1856.231811523438	1077.413940429688	-351.8987731933594	-1718.251098632812	896.291259765625	-278.6888732910156	-1801.88916015625	881.028564453125	-255.5208892822266	-1824.389282226562	1040.149536132812	-281.4749755859375	-1713.934326171875	739.1597900390625	-256.0823669433594	-1706.5703125	799.6039428710938	-251.8351745605469	-1782.894409179688	795.2575073242188	-242.6163787841797	-1691.562622070312	1653.634399414062	-502.823486328125	-1497.160888671875	1658.1904296875	-579.6903686523438	-1559.404907226562	1661.119018554688	-463.4809265136719	-1623.845458984375	1655.100341796875	-667.2196655273438	-1605.2216796875	862.6519165039062	-751.8569946289062	-1828.8173828125	869.3162231445312	-421.9277038574219	-1705.848876953125	908.6876831054688	-421.037353515625	-1563.903198242188	900.8078002929688	-634.311279296875	-1580.803344726562	443.0157775878906	-692.6487426757812	-1560.075561523438	598.722900390625	-705.9761352539062	-1688.1142578125	33.56091690063477	-750.5565185546875	-1599.056640625	289.3897399902344	-715.7327880859375	-1527.122314453125	47.54174041748047	-577.9578247070312	-1603.414184570312	53.39634704589844	-587.6994018554688	-1548.507934570312	44.35085296630859	-689.8613891601562	-1761.578735351562	33.80666351318359	-732.09814453125	-1774.572021484375	475.9188842773438	-415.4535522460938	-1794.651000976562	735.75634765625	-385.3453369140625	-1817.07373046875	44.11501693725586	-426.3084411621094	-1780.768676757812	331.5661010742188	-399.8994445800781	-1604.20703125	55.26372909545898	-374.9195861816406	-1644.364135742188	57.8399543762207	-433.7483520507812	-1708.396606445312	52.03911590576172	-348.1090698242188	-1855.340454101562	34.1403923034668	-498.2832336425781	
